<?xml version="1.0" encoding="UTF-8"?>
<svg width="19px" height="26px" viewBox="0 0 19 26" version="1.1" xmlns="http://www.w3.org/2000/svg" xmlns:xlink="http://www.w3.org/1999/xlink">
    <!-- Generator: Sketch 61.2 (89653) - https://sketch.com -->
    <title>Shape</title>
    <desc>Created with Sketch.</desc>
    <g id="Page-1" stroke="none" stroke-width="1" fill="none" fill-rule="evenodd">
        <g id="Compare-pixels-homepage-design-website" transform="translate(-97.000000, -770.000000)" fill="#FFFFFF" fill-rule="nonzero">
            <g id="Group-17" transform="translate(0.000000, 735.000000)">
                <g id="Group-16" transform="translate(97.000000, 35.000000)">
                    <g id="Group-2">
                        <g id="Group">
                            <path d="M9.5,0 C14.7467051,0 19,4.31828582 19,9.64516132 C19,14.9720368 14.7467051,19.2903226 9.5,19.2903226 L9.5,26 L0,26 L0,9.43548389 L0.00220081463,9.43546322 C0.11207831,4.2054168 4.32231665,0 9.5,0 Z M1.29927784,14.5171554 L1.29959381,24.6739428 L8.20030697,24.6739428 L8.20011502,19.2007809 C5.25550358,18.7917141 2.74065698,17.0126595 1.29927784,14.5171554 Z M9.50000003,1.326 C5.03876644,1.326 1.41184867,4.93919074 1.30214978,9.43542117 L9.50000003,9.43548389 L9.50000003,17.9643226 C14.0303956,17.9643226 17.7004062,14.2382337 17.7004062,9.64516132 C17.7004062,5.0520889 14.0303956,1.326 9.50000003,1.326 Z" id="Shape"></path>
                        </g>
                    </g>
                </g>
            </g>
        </g>
    </g>
</svg>